<?xml version="1.0" encoding="UTF-8"?>
<svg width="100%" height="100%" viewBox="0 0 375 900" fill="none" xmlns="http://www.w3.org/2000/svg">
  <defs>
    <!-- 顶部白色渐变遮罩 -->
    <linearGradient id="topFade" x1="0" y1="0" x2="0" y2="1">
      <stop offset="0%" stop-color="#fff" stop-opacity="1"/>
      <stop offset="100%" stop-color="#aeefff" stop-opacity="0"/>
    </linearGradient>
    <!-- 主背景渐变 -->
    <radialGradient id="bg1" cx="50%" cy="30%" r="80%" fx="50%" fy="30%">
      <stop offset="0%" stop-color="#aeefff" stop-opacity="1"/>
      <stop offset="100%" stop-color="#fff" stop-opacity="1"/>
    </radialGradient>
    <linearGradient id="cloud" x1="0" y1="0" x2="1" y2="1">
      <stop offset="0%" stop-color="#fff"/>
      <stop offset="100%" stop-color="#b2ebf2"/>
    </linearGradient>
  </defs>
  <!-- 主渐变背景 -->
  <rect width="375" height="900" fill="url(#bg1)"/>
  <!-- 顶部白色渐变遮罩 -->
  <rect x="0" y="0" width="375" height="90" fill="url(#topFade)"/>
  <!-- 彩虹和童趣元素集中在上半部分 -->
  <path d="M40 180 Q120 80 187 180 Q255 280 335 180" stroke="#ffb347" stroke-width="18" fill="none"/>
  <path d="M55 200 Q120 120 187 200 Q255 280 320 200" stroke="#ff6961" stroke-width="12" fill="none"/>
  <path d="M70 220 Q120 160 187 220 Q255 280 305 220" stroke="#77dd77" stroke-width="8" fill="none"/>
  <!-- 云朵 -->
  <ellipse cx="90" cy="100" rx="48" ry="22" fill="url(#cloud)"/>
  <ellipse cx="130" cy="130" rx="32" ry="16" fill="url(#cloud)"/>
  <ellipse cx="280" cy="90" rx="38" ry="18" fill="url(#cloud)"/>
  <ellipse cx="320" cy="120" rx="22" ry="10" fill="url(#cloud)"/>
  <!-- 星星 -->
  <circle cx="60" cy="60" r="5" fill="#ffe066"/>
  <circle cx="320" cy="60" r="4" fill="#ffe066"/>
  <circle cx="200" cy="40" r="4.5" fill="#ffe066"/>
  <circle cx="100" cy="200" r="3" fill="#ffe066"/>
  <circle cx="350" cy="180" r="2.5" fill="#ffe066"/>
  <!-- 气球 -->
  <ellipse cx="320" cy="260" rx="18" ry="28" fill="#ffd6e0"/>
  <rect x="317" y="288" width="6" height="18" rx="3" fill="#ffd6e0"/>
  <ellipse cx="80" cy="320" rx="16" ry="24" fill="#b5ead7"/>
  <rect x="77" y="344" width="6" height="14" rx="3" fill="#b5ead7"/>
  <!-- 太阳 -->
  <circle cx="340" cy="60" r="28" fill="#ffe066"/>
  <!-- 花朵 -->
  <ellipse cx="60" cy="830" rx="16" ry="7" fill="#ffb347"/>
  <ellipse cx="60" cy="822" rx="7" ry="16" fill="#ffb347"/>
  <circle cx="60" cy="827" r="5" fill="#fff"/>
  <!-- 泡泡 -->
  <circle cx="100" cy="700" r="18" fill="#aeefff" fill-opacity="0.7"/>
  <circle cx="300" cy="800" r="14" fill="#ffd6e0" fill-opacity="0.7"/>
  <circle cx="200" cy="600" r="10" fill="#b5ead7" fill-opacity="0.7"/>
  <!-- 底部大圆角遮罩 -->
  <rect x="-40" y="800" width="455" height="200" rx="100" fill="#fff" fill-opacity="0.96"/>
</svg>